<svg width="26" height="25" viewBox="0 0 26 25" fill="none" xmlns="http://www.w3.org/2000/svg">
<g clip-path="url(#clip0_616_70)">
<path d="M10.9145 21.999C10.9145 21.999 10.9145 21.236 10.9145 20.9545V18.9536C7.9455 19.5998 7.32703 17.6941 7.32703 17.6941C6.84146 16.4606 6.14134 16.1322 6.14134 16.1322C5.81734 15.9099 5.71831 15.7639 5.73047 15.6684C5.75393 15.4773 6.21517 15.4842 6.21517 15.4842C7.28707 15.5589 7.85082 16.5839 7.85082 16.5839C8.24084 17.251 8.72988 17.5672 9.21372 17.6888C9.91123 17.8626 10.5975 17.6315 10.9571 17.4699C11.0526 16.782 11.3289 16.3094 11.6346 16.0436C9.2641 15.7726 6.77197 14.8571 6.77197 10.7675C6.77197 9.60181 7.18892 8.64978 7.87167 7.90275C7.76135 7.63347 7.39565 6.54767 7.97591 5.07793C7.97591 5.07793 8.87234 4.79128 10.9119 6.17242C11.7632 5.93615 12.6761 5.81801 13.583 5.8128C14.4898 5.81801 15.4036 5.93615 16.2566 6.17242C17.1018 5.59911 17.7498 5.31246 18.2198 5.17348C18.8825 4.97891 19.1892 5.07793 19.1892 5.07793C19.7703 6.54941 19.4046 7.63521 19.2943 7.90275C19.9796 8.64978 20.3931 9.60354 20.3931 10.7675C20.3931 14.8675 17.8958 15.7709 15.5192 16.035C15.9022 16.3668 16.2514 17.0148 16.2514 18.012V20.941C16.2514 21.2242 16.2514 21.999 16.2514 21.999C16.2514 21.999 14.7635 21.999 13.583 21.999C12.4025 21.999 10.9145 21.999 10.9145 21.999Z" fill="#B9B9B9"/>
</g>
<defs>
<clipPath id="clip0_616_70">
<rect width="24.9091" height="24.9091" fill="white" transform="translate(0.818359)"/>
</clipPath>
</defs>
</svg>
