<svg width="24" height="24" viewBox="0 0 24 24" fill="none" xmlns="http://www.w3.org/2000/svg">
<path d="M15.7799 15.4687L15.0917 15.583L15.1824 15.34C16.3589 15.1636 17.6172 14.8412 18.6037 14.0068C19.7007 13.079 20.3767 11.5959 20.3767 9.2621C20.3767 8.09697 19.955 7.02458 19.2103 6.13278L19.1135 5.7345C19.4071 4.87689 19.4202 3.94276 19.1486 3.07475L19.0137 2.64385L18.5713 2.7342C18.1248 2.8254 17.281 3.00975 15.9056 3.99141L15.6423 4.03604C13.7298 3.55425 11.7325 3.55425 9.82006 4.03604L9.54015 3.98859C8.84177 3.55322 8.28084 3.26429 7.83243 3.0816C7.37237 2.89417 7.00254 2.80681 6.70978 2.80681H6.33461L6.22972 3.16702C5.98031 4.02352 5.95589 4.98635 6.26584 5.82564L6.17462 6.20311C5.34435 7.10973 4.92503 8.2637 4.92503 9.34483C4.92503 11.6302 5.55648 13.1124 6.63132 14.053C7.59861 14.8995 8.85473 15.2415 10.0962 15.4216L10.1437 15.581L9.6202 15.4731C8.46205 15.2345 7.26597 14.7877 6.36019 13.8824C5.46717 12.9899 4.80087 11.5958 4.80087 9.34574C4.80087 8.13206 5.16589 7.08597 5.89407 6.18574L6.04314 6.00145L5.99483 5.76939C5.78068 4.7406 5.84427 3.65328 6.16527 2.78303L6.39168 2.59642C6.41305 2.59256 6.44468 2.58803 6.4879 2.58497C6.60458 2.5767 6.78914 2.58068 7.0469 2.63015C7.56268 2.72916 8.36652 3.00957 9.48991 3.72804L9.67335 3.84535L9.88419 3.79097C11.7262 3.31581 13.6532 3.31581 15.4952 3.79097L15.718 3.84842L15.9065 3.71666C16.9874 2.9613 17.7887 2.66308 18.3114 2.5553C18.573 2.50136 18.7647 2.4951 18.8878 2.50259C18.935 2.50546 18.9692 2.51011 18.9919 2.51402L19.2074 2.69164C19.5415 3.72239 19.5932 4.73305 19.3146 5.73666L19.2458 5.98469L19.4077 6.18483C20.1357 7.08488 20.5 8.1309 20.5 9.34483C20.5 11.648 19.8669 13.0615 19.0056 13.949C18.1355 14.8455 16.9691 15.2711 15.7799 15.4687ZM14.989 15.858L15.087 15.5957L15.4246 16.2044C15.6851 16.674 15.7634 17.2351 15.7634 17.8646V21.2554C15.7634 21.3663 15.732 21.4059 15.7279 21.4106C15.7252 21.4136 15.7241 21.4139 15.7237 21.4141C15.723 21.4144 15.7166 21.4172 15.7013 21.4172V21.4172L15.6941 21.4173C15.6783 21.4175 15.6624 21.4145 15.647 21.4081C15.6316 21.4016 15.6165 21.3916 15.6032 21.3779C15.5898 21.3641 15.5785 21.3468 15.5706 21.3268C15.5626 21.3067 15.5586 21.2847 15.5589 21.2622L15.5589 21.2622V21.2554V17.8935C15.6043 17.483 15.5596 17.0669 15.4275 16.6759C15.3275 16.3795 15.1791 16.103 14.989 15.858ZM10.1994 15.7674L10.2461 15.9237C9.80599 16.4814 9.58405 17.1807 9.66167 17.8932V21.3381H9.66162L9.66172 21.3449C9.66202 21.3674 9.65792 21.3894 9.65001 21.4095C9.64211 21.4296 9.63076 21.4468 9.61739 21.4606C9.60405 21.4743 9.589 21.4843 9.57357 21.4908C9.55817 21.4972 9.54222 21.5002 9.52652 21.5L9.51929 21.4999L9.51207 21.5C9.49636 21.5002 9.48041 21.4972 9.46502 21.4908C9.44958 21.4843 9.43454 21.4743 9.4212 21.4606C9.40782 21.4468 9.39648 21.4296 9.38857 21.4095C9.38066 21.3894 9.37656 21.3674 9.37687 21.3449H9.37692V21.3381V19.4364V18.8153L8.77013 18.9479C7.55305 19.214 6.76258 19.0163 6.19316 18.6763C5.59824 18.321 5.19073 17.7827 4.78169 17.2353L4.77594 17.2276L4.76991 17.2202C4.75382 17.2003 4.73765 17.1802 4.72141 17.1601C4.54376 16.9401 4.35767 16.7096 4.16777 16.5248C4.00281 16.3643 3.8033 16.2056 3.5604 16.1119C3.55067 16.0949 3.54127 16.0768 3.53283 16.058C3.49683 15.9778 3.49805 15.9316 3.50202 15.9153C3.50762 15.8922 3.51745 15.871 3.52913 15.8541C3.53227 15.8495 3.5353 15.8456 3.53813 15.8423L3.57192 15.8597L3.63877 15.8735C4.19219 15.9875 4.54455 16.4138 5.01744 16.9859C5.04767 17.0225 5.07838 17.0596 5.10968 17.0973C5.46358 17.5827 5.8836 18.1449 6.53426 18.4923C7.21296 18.8548 8.06686 18.9496 9.22924 18.6838L9.61781 18.595V18.1964V17.8655V17.8356L9.61425 17.8059C9.54913 17.2633 9.67865 16.7064 9.95654 16.2053L10.1994 15.7674Z" fill="#FEFEFE" stroke="#B9B9B9"/>
</svg>
