<svg width="25" height="25" viewBox="0 0 25 25" fill="none" xmlns="http://www.w3.org/2000/svg">
<g clip-path="url(#clip0_616_45)">
<path d="M5 20H8V9H5V20Z" fill="#B9B9B9"/>
<path d="M7.00034 8C8.10491 8 9 7.1039 9 5.99932C9 4.89542 8.10491 4 7.00034 4C5.89509 4 5 4.89542 5 5.99932C5 7.1039 5.89509 8 7.00034 8Z" fill="#B9B9B9"/>
<path d="M13.3948 14.3967C13.3948 12.896 14.1346 12.002 15.5516 12.002C16.8524 12.002 17.4776 12.8603 17.4776 14.3967C17.4776 15.9337 17.4776 20 17.4776 20H21C21 20 21 16.1006 21 13.2414C21 10.3822 19.2644 9 16.8401 9C14.4151 9 13.3948 10.7632 13.3948 10.7632V9.32584H10V20H13.3948C13.3948 20 13.3948 16.0407 13.3948 14.3967Z" fill="#B9B9B9"/>
</g>
<defs>
<clipPath id="clip0_616_45">
<rect width="24.9091" height="24.9091" fill="white" transform="matrix(1 0 0 -1 0 24.9082)"/>
</clipPath>
</defs>
</svg>
