<svg width="274" height="256" viewBox="0 0 274 256" fill="none" xmlns="http://www.w3.org/2000/svg">
<g clip-path="url(#clip0_625_426)">
<path d="M143.171 92.5119L91.3013 109.905L31.3259 102.593L83.1955 85.1996L143.171 92.5119Z" fill="url(#paint0_linear_625_426)"/>
<path d="M83.1949 85.2034L31.3253 102.597L25.321 25.373L77.1685 7.9734L83.1949 85.2034Z" fill="url(#paint1_linear_625_426)"/>
<path d="M137.143 15.2825L143.17 92.5125L83.1943 85.2002L77.1679 7.9702L137.143 15.2825Z" fill="url(#paint2_linear_625_426)"/>
<path d="M251.333 117.321L232.986 221.212L147.984 250.278L166.33 146.387L251.333 117.321Z" fill="url(#paint3_linear_625_426)"/>
<path d="M166.331 146.388L147.985 250.279L65.111 197.441L83.4634 93.5704L166.331 146.388Z" fill="url(#paint4_linear_625_426)"/>
<path d="M168.459 64.4832L251.333 117.322L166.33 146.388L83.4624 93.5697L168.459 64.4832Z" fill="url(#paint5_linear_625_426)"/>
<mask id="mask0_625_426" style="mask-type:alpha" maskUnits="userSpaceOnUse" x="25" y="7" width="227" height="244">
<path d="M143.171 92.5119L91.3013 109.905L31.3259 102.593L83.1955 85.1996L143.171 92.5119Z" fill="url(#paint6_linear_625_426)"/>
<path d="M83.1949 85.2034L31.3253 102.597L25.321 25.373L77.1685 7.9734L83.1949 85.2034Z" fill="url(#paint7_linear_625_426)"/>
<path d="M137.143 15.2825L143.17 92.5125L83.1943 85.2002L77.1679 7.9702L137.143 15.2825Z" fill="url(#paint8_linear_625_426)"/>
<path d="M251.333 117.321L232.986 221.212L147.984 250.278L166.33 146.387L251.333 117.321Z" fill="url(#paint9_linear_625_426)"/>
<path d="M166.331 146.388L147.985 250.279L65.111 197.441L83.4634 93.5704L166.331 146.388Z" fill="url(#paint10_linear_625_426)"/>
<path d="M168.459 64.4832L251.333 117.322L166.33 146.388L83.4624 93.5697L168.459 64.4832Z" fill="url(#paint11_linear_625_426)"/>
</mask>
<g mask="url(#mask0_625_426)">
<rect x="6" width="274" height="274" fill="black" fill-opacity="0.4"/>
</g>
</g>
<defs>
<linearGradient id="paint0_linear_625_426" x1="113.278" y1="88.8274" x2="60.4105" y2="106.469" gradientUnits="userSpaceOnUse">
<stop stop-color="#6336D0"/>
<stop offset="1" stop-color="#411DA3"/>
</linearGradient>
<linearGradient id="paint1_linear_625_426" x1="47.2423" y1="15.5139" x2="60.6013" y2="91.2177" gradientUnits="userSpaceOnUse">
<stop stop-color="#9333FD"/>
<stop offset="1" stop-color="#6D4CE6"/>
</linearGradient>
<linearGradient id="paint2_linear_625_426" x1="66.9495" y1="31.152" x2="153.388" y2="69.2431" gradientUnits="userSpaceOnUse">
<stop stop-color="#987EF3"/>
<stop offset="1" stop-color="#B0A3FF"/>
</linearGradient>
<linearGradient id="paint3_linear_625_426" x1="178.958" y1="144.704" x2="221.266" y2="224.651" gradientUnits="userSpaceOnUse">
<stop stop-color="#6336D0"/>
<stop offset="1" stop-color="#411DA3"/>
</linearGradient>
<linearGradient id="paint4_linear_625_426" x1="69.327" y1="162.921" x2="159.253" y2="180.364" gradientUnits="userSpaceOnUse">
<stop stop-color="#9333FD"/>
<stop offset="1" stop-color="#6D4CE6"/>
</linearGradient>
<linearGradient id="paint5_linear_625_426" x1="93.7108" y1="127.615" x2="241.079" y2="83.2554" gradientUnits="userSpaceOnUse">
<stop stop-color="#987EF3"/>
<stop offset="1" stop-color="#B0A3FF"/>
</linearGradient>
<linearGradient id="paint6_linear_625_426" x1="113.278" y1="88.8274" x2="60.4105" y2="106.469" gradientUnits="userSpaceOnUse">
<stop stop-color="#6336D0"/>
<stop offset="1" stop-color="#411DA3"/>
</linearGradient>
<linearGradient id="paint7_linear_625_426" x1="47.2423" y1="15.5139" x2="60.6013" y2="91.2177" gradientUnits="userSpaceOnUse">
<stop stop-color="#9333FD"/>
<stop offset="1" stop-color="#6D4CE6"/>
</linearGradient>
<linearGradient id="paint8_linear_625_426" x1="66.9495" y1="31.152" x2="153.388" y2="69.2431" gradientUnits="userSpaceOnUse">
<stop stop-color="#987EF3"/>
<stop offset="1" stop-color="#B0A3FF"/>
</linearGradient>
<linearGradient id="paint9_linear_625_426" x1="178.958" y1="144.704" x2="221.266" y2="224.651" gradientUnits="userSpaceOnUse">
<stop stop-color="#6336D0"/>
<stop offset="1" stop-color="#411DA3"/>
</linearGradient>
<linearGradient id="paint10_linear_625_426" x1="69.327" y1="162.921" x2="159.253" y2="180.364" gradientUnits="userSpaceOnUse">
<stop stop-color="#9333FD"/>
<stop offset="1" stop-color="#6D4CE6"/>
</linearGradient>
<linearGradient id="paint11_linear_625_426" x1="93.7108" y1="127.615" x2="241.079" y2="83.2554" gradientUnits="userSpaceOnUse">
<stop stop-color="#987EF3"/>
<stop offset="1" stop-color="#B0A3FF"/>
</linearGradient>
<clipPath id="clip0_625_426">
<rect width="273.54" height="256" fill="white"/>
</clipPath>
</defs>
</svg>
