<svg width="28" height="27" viewBox="0 0 28 27" fill="none" xmlns="http://www.w3.org/2000/svg">
<g clip-path="url(#clip0_631_455)">
<path d="M13.7236 27C21.1795 27 27.2236 20.9558 27.2236 13.5C27.2236 6.04416 21.1795 0 13.7236 0C6.26779 0 0.223633 6.04416 0.223633 13.5C0.223633 20.9558 6.26779 27 13.7236 27Z" fill="#B9B9B9"/>
<path d="M17.3313 11.8514C16.4786 8.08806 14.4634 6.85064 14.2464 6.37788C14.0091 6.04434 13.7686 5.45107 13.7686 5.45107C13.7646 5.44105 13.7583 5.42339 13.7509 5.40625C13.7264 5.73979 13.7137 5.86847 13.3984 6.20491C12.9101 6.58671 10.4047 8.68896 10.2008 12.9647C10.0107 16.9524 13.0815 19.3287 13.4967 19.6316L13.5439 19.6651V19.6622C13.5466 19.6822 13.6758 20.6114 13.7665 21.596H14.0919C14.1682 20.9 14.2826 20.2088 14.4346 19.5253L14.461 19.5082C14.6468 19.375 14.8239 19.2301 14.9912 19.0745L15.0102 19.0573C15.893 18.2418 17.48 16.3555 17.4645 13.348C17.4612 12.8464 17.4167 12.3458 17.3313 11.8514ZM13.7319 17.3801C13.7319 17.3801 13.7319 11.7871 13.9165 11.7882C14.0605 11.7882 14.2469 19.0025 14.2469 19.0025C13.9906 18.9716 13.7319 17.8152 13.7319 17.3801Z" fill="#111111"/>
</g>
<defs>
<clipPath id="clip0_631_455">
<rect width="27" height="27" fill="white" transform="translate(0.223633)"/>
</clipPath>
</defs>
</svg>
