<svg width="28" height="27" viewBox="0 0 28 27" fill="none" xmlns="http://www.w3.org/2000/svg">
<path d="M12.9225 0.0072658C12.8644 0.0125436 12.6797 0.031016 12.5134 0.0442105C8.67849 0.389908 5.08641 2.45881 2.81133 5.6387C1.54447 7.40676 0.734207 9.41234 0.428048 11.5367C0.319837 12.2782 0.306641 12.4972 0.306641 13.5026C0.306641 14.5081 0.319837 14.7271 0.428048 15.4686C1.16177 20.538 4.76969 24.7972 9.66295 26.3752C10.5392 26.6576 11.4629 26.8502 12.5134 26.9664C12.9225 27.0112 14.6908 27.0112 15.0999 26.9664C16.9131 26.7658 18.4492 26.3172 19.9641 25.544C20.1964 25.4252 20.2412 25.3936 20.2096 25.3672C20.1885 25.3513 19.1987 24.024 18.011 22.4195L15.8521 19.5035L13.1468 15.5003C11.6583 13.2994 10.4336 11.4997 10.4231 11.4997C10.4125 11.4971 10.4019 13.2757 10.3967 15.4475C10.3888 19.2502 10.3861 19.4032 10.3386 19.493C10.27 19.6223 10.2172 19.675 10.1063 19.7331C10.0219 19.7753 9.94799 19.7832 9.54946 19.7832H9.09286L8.97145 19.7067C8.89227 19.6566 8.83421 19.5906 8.79462 19.5141L8.73919 19.3953L8.74447 14.1043L8.75239 8.81066L8.83421 8.70775C8.87644 8.65233 8.96617 8.58108 9.02951 8.54677C9.13773 8.49399 9.17995 8.48872 9.63655 8.48872C10.175 8.48872 10.2647 8.50983 10.4046 8.66289C10.4442 8.70511 11.909 10.9112 13.6615 13.5686C15.414 16.226 17.8105 19.8545 18.9876 21.6358L21.1254 24.8737L21.2336 24.8024C22.1917 24.1797 23.2052 23.293 24.0075 22.3694C25.7151 20.4087 26.8157 18.0178 27.1852 15.4686C27.2934 14.7271 27.3066 14.5081 27.3066 13.5026C27.3066 12.4972 27.2934 12.2782 27.1852 11.5367C26.4515 6.46731 22.8436 2.20812 17.9503 0.630048C17.0873 0.350324 16.1688 0.157684 15.1395 0.0415716C14.8861 0.0151825 13.1415 -0.0138455 12.9225 0.0072658ZM18.4492 8.17205C18.5758 8.23538 18.6788 8.35677 18.7157 8.48344C18.7368 8.55205 18.7421 10.0193 18.7368 13.3258L18.7289 18.0706L17.8923 16.7881L17.053 15.5056V12.0565C17.053 9.82664 17.0635 8.57316 17.0794 8.51247C17.1216 8.36469 17.214 8.24858 17.3407 8.17997C17.4489 8.12455 17.4885 8.11927 17.9028 8.11927C18.2934 8.11927 18.3621 8.12455 18.4492 8.17205Z" fill="#B9B9B9"/>
</svg>
