<svg width="25" height="27" viewBox="0 0 25 27" fill="none" xmlns="http://www.w3.org/2000/svg">
<g clip-path="url(#clip0_631_453)">
<path d="M12.2651 26.9499C11.8937 26.9499 11.5471 26.8509 11.2253 26.6776L7.93234 24.7216C7.43716 24.4493 7.68475 24.3502 7.8333 24.3007C8.50179 24.0779 8.62558 24.0284 9.31883 23.6322C9.3931 23.5827 9.49214 23.6075 9.56641 23.657L12.0918 25.1673C12.1908 25.2168 12.3146 25.2168 12.3889 25.1673L22.2677 19.448C22.3667 19.3985 22.4162 19.2994 22.4162 19.1757V7.76187C22.4162 7.63807 22.3667 7.53904 22.2677 7.48952L12.3889 1.79501C12.2899 1.74549 12.1661 1.74549 12.0918 1.79501L2.21306 7.48952C2.11403 7.53904 2.06451 7.66283 2.06451 7.76187V19.1757C2.06451 19.2747 2.11403 19.3985 2.21306 19.448L4.91177 21.0078C6.37254 21.7506 7.28861 20.884 7.28861 20.0175V8.75222C7.28861 8.60367 7.4124 8.45511 7.58571 8.45511H8.84841C8.99696 8.45511 9.14552 8.57891 9.14552 8.75222V20.0175C9.14552 21.9734 8.08089 23.1123 6.22398 23.1123C5.65453 23.1123 5.20887 23.1123 3.94618 22.4933L1.34651 21.0078C0.702781 20.6364 0.306641 19.9432 0.306641 19.2004V7.78663C0.306641 7.04387 0.702781 6.35062 1.34651 5.97924L11.2253 0.259967C11.8442 -0.0866556 12.686 -0.0866556 13.305 0.259967L23.1837 5.97924C23.8275 6.35062 24.2236 7.04387 24.2236 7.78663V19.2004C24.2236 19.9432 23.8275 20.6364 23.1837 21.0078L13.305 26.7271C12.9831 26.8756 12.6117 26.9499 12.2651 26.9499ZM15.3104 19.1014C10.9777 19.1014 10.0863 17.1207 10.0863 15.4371C10.0863 15.2885 10.2101 15.14 10.3835 15.14H11.6709C11.8195 15.14 11.9433 15.239 11.9433 15.3876C12.1413 16.6998 12.7108 17.3435 15.3352 17.3435C17.4149 17.3435 18.3063 16.8731 18.3063 15.7589C18.3063 15.1152 18.0587 14.6448 14.8153 14.3229C12.1166 14.0506 10.433 13.4564 10.433 11.3024C10.433 9.29691 12.1166 8.10849 14.9391 8.10849C18.1082 8.10849 19.668 9.19788 19.8661 11.5747C19.8661 11.649 19.8413 11.7233 19.7918 11.7975C19.7423 11.8471 19.668 11.8966 19.5937 11.8966H18.3063C18.1825 11.8966 18.0587 11.7975 18.0339 11.6738C17.7368 10.312 16.9693 9.86636 14.9391 9.86636C12.6613 9.86636 12.3889 10.6586 12.3889 11.2529C12.3889 11.9709 12.7108 12.1937 15.7809 12.5898C18.8262 12.986 20.2622 13.5554 20.2622 15.6847C20.2374 17.8634 18.4548 19.1014 15.3104 19.1014Z" fill="#B9B9B9"/>
</g>
<defs>
<clipPath id="clip0_631_453">
<rect width="23.917" height="27" fill="white" transform="translate(0.306641)"/>
</clipPath>
</defs>
</svg>
