<svg width="29" height="27" viewBox="0 0 29 27" fill="none" xmlns="http://www.w3.org/2000/svg">
<g clip-path="url(#clip0_517_898)">
<mask id="mask0_517_898" style="mask-type:luminance" maskUnits="userSpaceOnUse" x="0" y="0" width="29" height="27">
<path d="M0 0H28.3065V27H0V0Z" fill="white"/>
</mask>
<g mask="url(#mask0_517_898)">
<path d="M28.3065 13.1501C28.3065 11.3614 25.9582 9.666 22.3574 8.61525C23.1889 5.11538 22.8197 2.32987 21.1921 1.43775C20.7977 1.22706 20.3514 1.12101 19.8994 1.13062V2.35688C20.1648 2.35688 20.3783 2.4075 20.5576 2.50087C21.3419 2.93063 21.6827 4.56413 21.4174 6.66675C21.3537 7.18425 21.2499 7.72875 21.1225 8.2845C19.9167 8.00734 18.6929 7.80702 17.4592 7.68488C16.7242 6.7177 15.9224 5.79841 15.059 4.93313C16.9402 3.26588 18.7058 2.35238 19.9065 2.35238V1.125C18.319 1.125 16.242 2.20387 14.1414 4.07475C12.042 2.21625 9.96387 1.1475 8.37753 1.1475V2.37375C9.5723 2.37375 11.3438 3.28275 13.225 4.93875C12.4171 5.74875 11.6092 6.66675 10.8414 7.68488C9.60513 7.80567 8.37912 8.0079 7.17215 8.29012C7.04459 7.76339 6.94422 7.231 6.87139 6.69488C6.60012 4.59113 6.93508 2.95763 7.71469 2.52338C7.88689 2.42438 8.11216 2.37937 8.37753 2.37937V1.15312C7.89396 1.15312 7.45403 1.25212 7.07425 1.46025C5.45253 2.35237 5.08926 5.13112 5.92548 8.62088C2.33646 9.67838 0 11.367 0 13.1501C0 14.9389 2.34826 16.6342 5.94907 17.6839C5.11757 21.1849 5.48673 23.9704 7.11436 24.8614C7.48942 25.0706 7.92817 25.1696 8.41173 25.1696C9.99925 25.1696 12.0762 24.0907 14.1768 22.2199C16.2762 24.0795 18.3532 25.1471 19.9407 25.1471C20.3961 25.1563 20.8459 25.0499 21.244 24.8389C22.8657 23.9479 23.229 21.1691 22.3928 17.6794C25.97 16.6286 28.3065 14.9333 28.3065 13.1501ZM20.7934 9.47925C20.5693 10.2148 20.3096 10.9401 20.015 11.6528C19.5328 10.7581 19.0034 9.88736 18.4287 9.04387C19.2484 9.15975 20.0386 9.30262 20.7946 9.47925H20.7934ZM18.1515 15.3405C17.7195 16.0599 17.2556 16.7614 16.761 17.4431C15.0298 17.5887 13.2887 17.5905 11.5573 17.4487C10.5641 16.0956 9.69559 14.663 8.96135 13.167C9.69447 11.6675 10.5593 10.2299 11.5467 8.8695C13.2774 8.72367 15.0181 8.72141 16.7492 8.86275C17.228 9.5175 17.6963 10.2172 18.1456 10.9552C18.5844 11.6753 18.983 12.4065 19.3463 13.1445C18.979 13.8915 18.5804 14.624 18.1515 15.3405ZM20.015 14.625C20.3264 15.3619 20.5929 16.0999 20.8111 16.8154C20.0563 16.992 19.259 17.1405 18.4346 17.2553C19.0069 16.4041 19.5344 15.5263 20.015 14.625ZM14.165 20.4975C13.6284 19.9688 13.0917 19.3804 12.561 18.7357C13.0799 18.7582 13.6107 18.7751 14.1473 18.7751C14.6899 18.7751 15.2265 18.7639 15.7514 18.7357C15.2324 19.3804 14.6958 19.9688 14.165 20.4975ZM9.87187 17.2553C9.07663 17.1453 8.28714 17.0004 7.50593 16.821C7.71941 16.1111 7.98478 15.3788 8.28436 14.6475C8.52142 15.0863 8.77028 15.5273 9.04155 15.9683C9.31282 16.4081 9.58881 16.8379 9.87187 17.2553ZM14.1355 5.80275C14.6722 6.3315 15.2088 6.91988 15.7396 7.5645C15.2206 7.542 14.6899 7.52513 14.1532 7.52513C13.6107 7.52513 13.074 7.53638 12.5492 7.5645C13.0681 6.91988 13.6048 6.3315 14.1355 5.80275ZM9.86598 9.045C9.2938 9.8943 8.76633 10.7703 8.28553 11.6696C7.98267 10.9524 7.71698 10.2214 7.48942 9.47925C8.24425 9.30825 9.04155 9.15975 9.86598 9.045ZM4.64462 15.9345C2.60183 15.1042 1.28087 14.0141 1.28087 13.1501C1.28087 12.2861 2.60183 11.1904 4.64462 10.3657C5.13998 10.1621 5.68252 9.97988 6.24275 9.81C6.57182 10.8878 7.00467 12.0105 7.54013 13.1614C7.03458 14.2438 6.60703 15.3579 6.26044 16.4959C5.71254 16.3341 5.17328 16.1467 4.64462 15.9345ZM7.74889 23.7982C6.96457 23.3707 6.62371 21.735 6.88908 19.6335C6.95277 19.116 7.05656 18.5704 7.18394 18.0146C8.31384 18.279 9.54871 18.4826 10.8473 18.6154C11.5823 19.5825 12.3841 20.5018 13.2474 21.3671C11.3662 23.0344 9.60061 23.9479 8.39994 23.9479C8.17342 23.9502 7.94979 23.8992 7.74889 23.7994V23.7982ZM21.4351 19.6054C21.7063 21.708 21.3714 23.3426 20.5918 23.7769C20.4196 23.8759 20.1943 23.9197 19.9289 23.9197C18.7342 23.9197 16.9626 23.0119 15.0814 21.3547C15.9412 20.4931 16.7376 19.5759 17.4651 18.6097C18.7013 18.489 19.9273 18.2867 21.1343 18.0045C21.2676 18.5602 21.3702 19.0935 21.4351 19.6054ZM23.6559 15.9345C23.1606 16.1381 22.618 16.3204 22.0578 16.4902C21.7051 15.3465 21.2717 14.2268 20.7604 13.1389C21.2912 11.9948 21.7169 10.8776 22.0401 9.80437C22.5898 9.96673 23.131 10.1541 23.6618 10.3657C25.7046 11.196 27.0256 12.2861 27.0256 13.1501C27.0197 14.0141 25.6987 15.1099 23.6559 15.9345Z" fill="#B9B9B9"/>
<path d="M14.147 15.6658C14.8464 15.6658 15.5172 15.4007 16.0118 14.929C16.5064 14.4572 16.7842 13.8174 16.7842 13.1503C16.7842 12.4831 16.5064 11.8433 16.0118 11.3715C15.5172 10.8998 14.8464 10.6348 14.147 10.6348C13.4476 10.6348 12.7768 10.8998 12.2822 11.3715C11.7876 11.8433 11.5098 12.4831 11.5098 13.1503C11.5098 13.8174 11.7876 14.4572 12.2822 14.929C12.7768 15.4007 13.4476 15.6658 14.147 15.6658Z" fill="#B9B9B9"/>
</g>
</g>
<defs>
<clipPath id="clip0_517_898">
<rect width="28.3065" height="27" fill="white"/>
</clipPath>
</defs>
</svg>
