<svg width="16" height="16" viewBox="0 0 16 16" fill="none" xmlns="http://www.w3.org/2000/svg">
<path d="M2.40039 2.4V13.6C2.40039 13.9713 2.54789 14.3274 2.81044 14.5899C3.07299 14.8525 3.42909 15 3.80039 15H12.2004C12.5717 15 12.9278 14.8525 13.1903 14.5899C13.4529 14.3274 13.6004 13.9713 13.6004 13.6V5.4394C13.6004 5.25289 13.5631 5.06827 13.4907 4.89637C13.4183 4.72447 13.3124 4.56877 13.179 4.4384L10.071 1.399C9.80944 1.14326 9.45819 1.00005 9.09239 1H3.80039C3.42909 1 3.07299 1.1475 2.81044 1.41005C2.54789 1.6726 2.40039 2.0287 2.40039 2.4Z" stroke="#B9B9B9" stroke-width="0.8" stroke-linecap="round" stroke-linejoin="round"/>
<path d="M9.40039 1V3.8C9.40039 4.1713 9.54789 4.5274 9.81044 4.78995C10.073 5.0525 10.4291 5.2 10.8004 5.2H13.6004" stroke="#B9B9B9" stroke-width="0.8" stroke-linejoin="round"/>
</svg>
