<svg width="26" height="25" viewBox="0 0 26 25" fill="none" xmlns="http://www.w3.org/2000/svg">
<g clip-path="url(#clip0_616_50)">
<path d="M22.4969 7.48681C21.8557 7.76975 21.1669 7.96093 20.4427 8.04734C21.1899 7.60212 21.7489 6.90141 22.0154 6.07595C21.3134 6.49117 20.5451 6.78344 19.7439 6.94006C19.2051 6.3672 18.4915 5.9875 17.7138 5.85991C16.9361 5.73231 16.1378 5.86397 15.443 6.23444C14.7481 6.6049 14.1955 7.19345 13.871 7.9087C13.5465 8.62395 13.4681 9.42589 13.6482 10.19C12.2258 10.1189 10.8342 9.75073 9.56395 9.10943C8.29365 8.46812 7.17297 7.568 6.27463 6.46748C5.96746 6.99512 5.79084 7.60687 5.79084 8.25839C5.79049 8.84491 5.93554 9.42244 6.2131 9.93975C6.49066 10.4571 6.89216 10.8981 7.38197 11.2239C6.81392 11.2059 6.2584 11.053 5.76166 10.7781V10.8239C5.7616 11.6466 6.04735 12.4439 6.57042 13.0806C7.09348 13.7173 7.82165 14.1541 8.63137 14.3171C8.10441 14.4591 7.55193 14.48 7.01567 14.3783C7.24412 15.0861 7.68913 15.705 8.28839 16.1485C8.88765 16.5919 9.61117 16.8376 10.3577 16.8513C9.09046 17.8419 7.52548 18.3792 5.91447 18.3768C5.6291 18.3769 5.34397 18.3603 5.06055 18.3271C6.69581 19.3741 8.59938 19.9298 10.5435 19.9276C17.1246 19.9276 20.7222 14.4998 20.7222 9.79237C20.7222 9.63943 20.7184 9.48496 20.7115 9.33202C21.4113 8.82807 22.0154 8.20402 22.4954 7.48911L22.4969 7.48681Z" fill="#B9B9B9"/>
</g>
<defs>
<clipPath id="clip0_616_50">
<rect width="24.9091" height="24.9091" fill="white" transform="translate(0.90918)"/>
</clipPath>
</defs>
</svg>
